Coordinates
version=1
nRows=16
nColumns=36
inDegrees=yes

Units are S.I. units (second, meters, Newtons, ...)
If the header above contains a line with 'inDegrees', this indicates whether rotational values are in degrees (yes) or radians (no).

endheader
time	pelvis_tilt	pelvis_list	pelvis_rotation	pelvis_tx	pelvis_ty	pelvis_tz	hip_flexion_r	hip_adduction_r	hip_rotation_r	knee_angle_r	knee_angle_r_beta	ankle_angle_r	subtalar_angle_r	mtp_angle_r	hip_flexion_l	hip_adduction_l	hip_rotation_l	knee_angle_l	knee_angle_l_beta	ankle_angle_l	subtalar_angle_l	mtp_angle_l	lumbar_extension	lumbar_bending	lumbar_rotation	arm_flex_r	arm_add_r	arm_rot_r	elbow_flex_r	pro_sup_r	arm_flex_l	arm_add_l	arm_rot_l	elbow_flex_l	pro_sup_l
      2.86666670	      3.84509591	      7.22492020	    -18.04417307	      0.98069970	      0.80793394	     -0.03334146	     50.01276142	    -11.45148150	      7.06502123	     21.22765932	      0.37049255	    -11.68393435	     -9.60918024	     -7.49999941	     29.08000177	     15.01875249	     -1.41702174	     57.77843709	      1.00842396	     32.99703729	    -10.86407231	     -7.49999941	    -16.87979868	    -13.31903283	     -3.58873239	     34.00292867	     10.82863976	     47.45212784	    107.01395660	    103.66498052	     53.31639125	      3.68863047	     68.70621972	    115.75189650	     89.58879620
      2.88333330	      4.09463557	      7.43830577	    -18.19552752	      0.97928376	      0.79466764	     -0.03392248	     50.48244490	    -11.84005831	      6.88518530	     21.36927463	      0.37296420	    -13.52192126	    -10.67593115	     -7.49999942	     30.16766794	     15.42073051	     -1.92669791	     59.43774131	      1.03738429	     32.60308577	    -12.08867861	     -7.49999942	    -17.29642462	    -13.68233484	     -3.73320286	     34.59718633	     11.11489051	     46.58511365	    107.42644056	    103.83187941	     53.69572138	      3.77087350	     68.00058032	    116.01176073	     89.65730887
      2.90000000	      4.10979819	      7.49512489	    -18.52334246	      0.98275756	      0.78425252	     -0.02928582	     51.14743872	    -11.79889176	      7.08362749	     21.64440305	      0.37776610	    -15.14596990	    -12.26807094	     -7.49999944	     31.37797073	     15.42452998	     -2.53363819	     61.22029143	      1.06849565	     32.83191501	    -12.86797994	     -7.49999944	    -16.93835693	    -14.06695579	     -3.36206580	     34.13911786	     11.74170540	     44.78228252	    107.98380541	    103.37925566	     53.64758002	      3.71385264	     67.15472904	    116.49153008	     89.45820119
      2.91666670	      3.89056520	      7.78134186	    -18.77050965	      0.98155765	      0.78096210	     -0.02994986	     52.16855557	    -11.80433669	      7.51320755	     22.10431786	      0.38579313	    -16.41646815	    -13.62440222	     -7.49999958	     32.64844789	     15.55855268	     -3.10556078	     62.61614150	      1.09285783	     33.20162240	    -13.46084050	     -7.49999958	    -16.59436080	    -14.64872622	     -2.92259347	     33.89031222	     12.13017188	     43.66959801	    107.78754747	    103.04401207	     54.08544034	      3.99140067	     67.29173771	    116.33282147	     89.01302074
      2.93333330	      3.77758134	      7.82553061	    -19.01367236	      0.98022974	      0.77672825	     -0.02942590	     52.71274993	    -11.62371649	      7.91910796	     22.35870359	      0.39023299	    -17.64891270	    -14.84239116	     -7.49999960	     33.45140319	     15.51061896	     -3.47794426	     63.67656705	      1.11136575	     33.51112937	    -14.01487069	     -7.49999960	    -16.64009085	    -14.80866775	     -2.29566248	     33.60121958	     12.10559986	     42.70692896	    108.22013542	    102.32783865	     54.13409142	      4.07101357	     67.48190415	    116.27892207	     88.26028321
      2.95000000	      3.69489499	      7.83402622	    -19.16323512	      0.97912535	      0.77712377	     -0.02950534	     52.96177743	    -11.47686354	      8.27271485	     22.34863011	      0.39005718	    -18.82746593	    -15.51740879	     -7.49999963	     33.97831578	     15.52041935	     -3.64515738	     64.33720889	      1.12289613	     33.58578816	    -14.74803914	     -7.49999963	    -16.88123275	    -14.84470028	     -1.40349023	     34.06571302	     11.48332141	     42.27005077	    108.96038519	    101.82152137	     54.32435012	      4.48616312	     68.09348262	    116.03006595	     87.81771174
      2.96666670	      3.68033959	      7.71269404	    -19.33071767	      0.97868787	      0.77601928	     -0.02931657	     52.89558122	    -11.24761499	      8.49616596	     22.11601818	      0.38599733	    -19.47409879	    -15.55207794	     -7.49999966	     34.27434614	     15.39502023	     -3.75023930	     64.77422708	      1.13052353	     33.39969552	    -15.38994854	     -7.49999966	    -17.16251437	    -14.73344346	     -0.62206319	     34.32151731	     10.94466971	     41.91156726	    109.71684747	    102.32938508	     54.40785994	      4.91627138	     68.41837693	    115.90189640	     88.21369755
      2.98333330	      3.48814414	      7.66191118	    -19.48699841	      0.97801203	      0.77356510	     -0.02994942	     53.09454804	    -10.98256112	      8.64843141	     21.97653884	      0.38356296	    -19.79168655	    -15.44134592	     -7.49999968	     34.84687311	     15.19234890	     -3.95934709	     65.30192806	      1.13973365	     33.28377238	    -15.87706603	     -7.49999968	    -17.10008359	    -14.67319819	     -0.36427855	     34.58857757	     10.65947355	     41.94011652	    109.35631314	    101.35197009	     54.39079991	      5.02946688	     68.55126138	    115.91257209	     87.18998640
      3.00000000	      3.20045473	      7.68976715	    -19.51082108	      0.97774086	      0.77260462	     -0.02984815	     53.53182034	    -10.63691224	      8.93731020	     21.89386604	      0.38212005	    -19.29086852	    -14.79319760	     -7.49999969	     35.61606325	     14.98409441	     -4.14691849	     65.89129849	      1.15002011	     33.13544961	    -16.12794057	     -7.49999969	    -17.01845121	    -14.61468646	     -0.46054479	     34.51193078	     10.39104887	     42.92843990	    110.09760279	    100.67988675	     54.69476526	      4.95535475	     69.25793129	    115.65871791	     86.68326045
      3.01666670	      3.05231687	      7.67713925	    -19.60910262	      0.97683679	      0.76971494	     -0.02946911	     53.91431023	    -10.27482846	      9.15153705	     22.08288305	      0.38541902	    -18.45466447	    -13.97543227	     -7.49999970	     36.31927602	     14.79256501	     -4.36185454	     66.58074352	      1.16205319	     33.17900426	    -16.28302390	     -7.49999970	    -16.93699889	    -14.56019565	     -0.05180366	     34.56314050	     10.25600030	     43.98955158	    110.41535370	    100.05803218	     54.70443204	      5.11877917	     69.52111984	    115.58972091	     86.27575076
      3.03333330	      2.88622108	      7.57166893	    -19.88224677	      0.97653237	      0.76852610	     -0.02915140	     54.20415343	     -9.90792684	      9.28750822	     22.51163687	      0.39290218	    -18.62801316	    -14.15826396	     -7.49999971	     36.78521039	     14.56893965	     -4.51861904	     67.13689398	      1.17175985	     33.36288947	    -16.46707870	     -7.49999971	    -16.83129099	    -14.39047067	      0.36402011	     34.53338531	     10.47770965	     44.37495796	    109.89462625	     99.65586827	     54.60382848	      4.95236022	     69.76050036	    115.76704200	     85.89648456
      3.05000000	      2.72279657	      7.49279920	    -19.96354714	      0.97632744	      0.76895914	     -0.02929845	     54.50225819	     -9.74736838	      9.22480497	     22.94145464	      0.40040392	    -19.21184915	    -14.55846714	     -7.49999973	     37.21785552	     14.40363953	     -4.63449707	     67.56801399	      1.17928431	     33.32937982	    -16.78431340	     -7.49999973	    -16.73938655	    -14.23278555	      0.30688441	     34.44698935	     10.65658440	     44.53945505	    108.80100612	     99.48394744	     54.37697148	      4.79946786	     69.88516196	    115.62936554	     85.04393330
      3.06666670	      2.65389569	      7.46499180	    -19.97414137	      0.97646023	      0.76813197	     -0.02928953	     54.62019751	     -9.78309348	      8.94577357	     23.03732403	      0.40207716	    -19.72614914	    -14.79884883	     -7.49999974	     37.45366401	     14.38712073	     -4.71748313	     67.84021362	      1.18403509	     33.34526914	    -17.02563932	     -7.49999974	    -16.72213509	    -14.20030345	      0.20385087	     34.22257387	     10.75023281	     44.64278409	    108.18465918	     99.24316296	     54.16481420	      4.67297425	     69.84786668	    115.63196677	     84.43591686
      3.08333330	      2.86209673	      7.17903881	    -19.93917356	      0.97622007	      0.76944397	     -0.02954392	     54.11572693	     -9.77574323	      8.54291897	     22.72853142	      0.39668771	    -20.39928966	    -15.25126712	     -7.49999977	     37.19273950	     14.26445507	     -4.59966579	     67.95960638	      1.18611889	     33.17007098	    -17.27321497	     -7.49999977	    -17.28514500	    -13.92220766	     -0.00464917	     34.35603439	     10.91329049	     44.59411418	    107.62368569	    102.98229859	     54.21136046	      4.65109499	     69.61314542	    115.77135426	     87.65217508
      3.10000000	      2.66015267	      7.28328543	    -19.85978075	      0.97650063	      0.76844207	     -0.02947631	     54.40695744	     -9.80287722	      8.50753923	     22.59373333	      0.39433504	    -20.42986191	    -15.17356086	     -7.49999978	     37.51567941	     14.25714133	     -4.68292091	     68.09600889	      1.18849956	     32.99293577	    -17.45753427	     -7.49999978	    -17.06566876	    -14.06438859	     -0.15459333	     34.16017780	     11.06758935	     45.05244566	    107.86907087	    102.41000415	     54.23343417	      4.75189465	     69.63121391	    115.78507261	     87.06630241
      3.11666670	      2.41740402	      7.25031933	    -19.83890963	      0.97633213	      0.76875942	     -0.02966893	     54.65616477	     -9.65473551	      8.57474809	     22.57367698	      0.39398499	    -20.10433479	    -14.91509438	     -7.49999978	     37.77688244	     14.08932622	     -4.71498207	     68.27114356	      1.19155624	     33.05911183	    -17.38760131	     -7.49999978	    -16.84158720	    -14.03184729	     -0.15167095	     34.28280050	     11.11940638	     44.89909609	    108.10146285	    101.50631334	     54.22775076	      4.84199670	     69.70479296	    115.87524327	     86.35145400
